# xmcd
#
# Track frame offsets: 
#        150
#        24257
#        52771
#        70695
#        88101
#        104587
#        115233
#        150410
#        168233
#        181447
#        196899
#        210792
#
# Disc length: 3055 seconds
#
# Revision: 0
# Processed by: cddbd v1.5.2PL0 Copyright (c) Steve Scherf et al.
# Submitted via: ExactAudioCopy v1.0b6
#
DISCID=8c0bed0c
DTITLE=Diana Ross - Playlist Your Way - Diana Ross
DYEAR=2008
DGENRE=Soul
TTITLE0=I'm Coming Out
TTITLE1=Ain't No Mountain High Enough
TTITLE2=Touch Me In The Morning
TTITLE3=The Boss
TTITLE4=Remember Me
TTITLE5=Good Morning Heartache
TTITLE6=Love Hangover
TTITLE7=It's My Turn
TTITLE8=Diana Ross with Marvin Gaye - My Mistake (Was To Love You)
TTITLE9=Theme From Mahogany (Do You Know Where You're Going To)
TTITLE10=Reach Out And Touch (Somebody's Hand)
TTITLE11=Upside Down
EXTD=
EXTT0=
EXTT1=
EXTT2=
EXTT3=
EXTT4=
EXTT5=
EXTT6=
EXTT7=
EXTT8=
EXTT9=
EXTT10=
EXTT11=
PLAYORDER=
